<svg width="19" height="18" viewBox="0 0 19 18" fill="none" xmlns="http://www.w3.org/2000/svg">
<path d="M10.125 3.42C11.235 3.54 12.255 3.915 13.185 4.545C14.085 5.165 14.795 5.96 15.315 6.93C15.855 7.92 16.125 8.985 16.125 10.125V16.875H2.625V10.125C2.625 8.985 2.895 7.92 3.435 6.93C3.955 5.96 4.665 5.165 5.565 4.545C6.495 3.915 7.515 3.54 8.625 3.42V1.125H10.125V3.42ZM14.625 15.375V10.125C14.625 9.175 14.385 8.29 13.905 7.47C13.445 6.68 12.82 6.055 12.03 5.595C11.21 5.115 10.325 4.875 9.375 4.875C8.425 4.875 7.54 5.115 6.72 5.595C5.93 6.055 5.305 6.68 4.845 7.47C4.365 8.29 4.125 9.175 4.125 10.125V15.375H14.625ZM9.375 13.875C8.695 13.875 8.0675 13.7075 7.4925 13.3725C6.9175 13.0375 6.4625 12.5825 6.1275 12.0075C5.7925 11.4325 5.625 10.805 5.625 10.125C5.625 9.445 5.7925 8.8175 6.1275 8.2425C6.4625 7.6675 6.9175 7.2125 7.4925 6.8775C8.0675 6.5425 8.695 6.375 9.375 6.375C10.055 6.375 10.6825 6.5425 11.2575 6.8775C11.8325 7.2125 12.2875 7.6675 12.6225 8.2425C12.9575 8.8175 13.125 9.445 13.125 10.125C13.125 10.805 12.9575 11.4325 12.6225 12.0075C12.2875 12.5825 11.8325 13.0375 11.2575 13.3725C10.6825 13.7075 10.055 13.875 9.375 13.875ZM9.375 12.375C9.785 12.375 10.1625 12.275 10.5075 12.075C10.8525 11.875 11.125 11.6025 11.325 11.2575C11.525 10.9125 11.625 10.535 11.625 10.125C11.625 9.715 11.525 9.3375 11.325 8.9925C11.125 8.6475 10.8525 8.375 10.5075 8.175C10.1625 7.975 9.785 7.875 9.375 7.875C8.965 7.875 8.5875 7.975 8.2425 8.175C7.8975 8.375 7.625 8.6475 7.425 8.9925C7.225 9.3375 7.125 9.715 7.125 10.125C7.125 10.535 7.225 10.9125 7.425 11.2575C7.625 11.6025 7.8975 11.875 8.2425 12.075C8.5875 12.275 8.965 12.375 9.375 12.375ZM9.375 10.875C9.165 10.875 8.9875 10.8025 8.8425 10.6575C8.6975 10.5125 8.625 10.335 8.625 10.125C8.625 9.915 8.6975 9.7375 8.8425 9.5925C8.9875 9.4475 9.165 9.375 9.375 9.375C9.585 9.375 9.7625 9.4475 9.9075 9.5925C10.0525 9.7375 10.125 9.915 10.125 10.125C10.125 10.335 10.0525 10.5125 9.9075 10.6575C9.7625 10.8025 9.585 10.875 9.375 10.875Z" fill="#CA8A04"/>
</svg>
