<svg width="19" height="18" viewBox="0 0 19 18" fill="none" xmlns="http://www.w3.org/2000/svg">
<path d="M10.5 10.125V6C10.5 5.46 10.365 4.96 10.095 4.5C9.825 4.04 9.46 3.675 9 3.405C8.54 3.135 8.04 3 7.5 3C6.96 3 6.46 3.135 6 3.405C5.54 3.675 5.175 4.04 4.905 4.5C4.635 4.96 4.5 5.46 4.5 6V10.125C4.5 11.005 4.72 11.825 5.16 12.585C5.59 13.325 6.175 13.91 6.915 14.34C7.675 14.78 8.495 15 9.375 15C10.255 15 11.075 14.78 11.835 14.34C12.575 13.91 13.16 13.325 13.59 12.585C14.03 11.825 14.25 11.005 14.25 10.125V3H15.75V10.125C15.75 11.275 15.46 12.35 14.88 13.35C14.32 14.31 13.56 15.07 12.6 15.63C11.6 16.21 10.525 16.5 9.375 16.5C8.225 16.5 7.15 16.21 6.15 15.63C5.19 15.07 4.43 14.31 3.87 13.35C3.29 12.35 3 11.275 3 10.125V6C3 5.19 3.205 4.435 3.615 3.735C4.015 3.055 4.555 2.515 5.235 2.115C5.935 1.705 6.69 1.5 7.5 1.5C8.31 1.5 9.065 1.705 9.765 2.115C10.445 2.515 10.985 3.055 11.385 3.735C11.795 4.435 12 5.19 12 6V10.125C12 10.605 11.8825 11.045 11.6475 11.445C11.4125 11.845 11.095 12.1625 10.695 12.3975C10.295 12.6325 9.855 12.75 9.375 12.75C8.895 12.75 8.455 12.6325 8.055 12.3975C7.655 12.1625 7.3375 11.845 7.1025 11.445C6.8675 11.045 6.75 10.605 6.75 10.125V6H8.25V10.125C8.25 10.435 8.36 10.7 8.58 10.92C8.8 11.14 9.065 11.25 9.375 11.25C9.685 11.25 9.95 11.14 10.17 10.92C10.39 10.7 10.5 10.435 10.5 10.125Z" fill="#111827"/>
</svg>
