<svg width="15" height="15" viewBox="0 0 15 15" fill="none" xmlns="http://www.w3.org/2000/svg">
<path d="M2.04102 11.6663V3.79134C2.04102 3.47245 2.11877 3.17884 2.27427 2.91051C2.42977 2.64217 2.64163 2.43023 2.90987 2.27467C3.17811 2.11912 3.47162 2.04134 3.79039 2.04134H11.9541C12.1174 2.04134 12.2554 2.09773 12.3682 2.21051C12.4809 2.32329 12.5373 2.46134 12.5373 2.62467V13.1247C12.5373 13.288 12.4809 13.4261 12.3682 13.5388C12.2554 13.6516 12.1174 13.708 11.9541 13.708H4.08195C3.70875 13.708 3.36665 13.6166 3.05565 13.4338C2.74465 13.2511 2.4978 13.0041 2.31508 12.693C2.13237 12.3819 2.04102 12.0397 2.04102 11.6663ZM11.371 12.5413V10.7913H4.08195C3.84093 10.7913 3.63489 10.8769 3.46384 11.048C3.29279 11.2191 3.20727 11.4252 3.20727 11.6663C3.20727 11.9075 3.29279 12.1136 3.46384 12.2847C3.63489 12.4558 3.84093 12.5413 4.08195 12.5413H11.371ZM3.20727 9.82301C3.47939 9.69079 3.77095 9.62467 4.08195 9.62467H11.371V3.20801H3.79039C3.62712 3.20801 3.48911 3.2644 3.37637 3.37717C3.26363 3.48995 3.20727 3.62801 3.20727 3.79134V9.82301Z" fill="#374151"/>
</svg>
