<svg width="15" height="15" viewBox="0 0 15 15" fill="none" xmlns="http://www.w3.org/2000/svg">
<path d="M5.53988 2.04134V3.20801H9.03863V2.04134H10.2049V3.20801H12.5374C12.7007 3.20801 12.8387 3.2644 12.9514 3.37717C13.0641 3.48995 13.1205 3.62801 13.1205 3.79134V13.1247C13.1205 13.288 13.0641 13.4261 12.9514 13.5388C12.8387 13.6516 12.7007 13.708 12.5374 13.708H2.04113C1.87786 13.708 1.73985 13.6516 1.62711 13.5388C1.51438 13.4261 1.45801 13.288 1.45801 13.1247V3.79134C1.45801 3.62801 1.51438 3.48995 1.62711 3.37717C1.73985 3.2644 1.87786 3.20801 2.04113 3.20801H4.37363V2.04134H5.53988ZM11.9543 7.87467H2.62426V12.5413H11.9543V7.87467ZM4.37363 4.37467H2.62426V6.70801H11.9543V4.37467H10.2049V5.54134H9.03863V4.37467H5.53988V5.54134H4.37363V4.37467Z" fill="#4B5563"/>
</svg>
