<svg xmlns="http://www.w3.org/2000/svg" width="34" height="30" viewBox="0 0 34 30" fill="none">
<path d="M29 18V22.5H33.5V25.5H29V30H26V25.5H21.5V22.5H26V18H29ZM29 0C29.42 0 29.775 0.145 30.065 0.435001C30.355 0.725 30.5 1.08 30.5 1.5V15H27.5V3H3.5V24L18.5 9L23 13.5V17.73L18.5 13.23L7.73 24H18.5V27H2C1.58 27 1.225 26.855 0.935 26.565C0.645 26.275 0.5 25.92 0.5 25.5V1.5C0.5 1.08 0.645 0.725 0.935 0.435001C1.225 0.145 1.58 0 2 0H29ZM9.5 6C10.04 6 10.54 6.135 11 6.405C11.46 6.675 11.825 7.04 12.095 7.5C12.365 7.96 12.5 8.46 12.5 9C12.5 9.54 12.365 10.04 12.095 10.5C11.825 10.96 11.46 11.325 11 11.595C10.54 11.865 10.04 12 9.5 12C8.96 12 8.46 11.865 8 11.595C7.54 11.325 7.175 10.96 6.905 10.5C6.635 10.04 6.5 9.54 6.5 9C6.5 8.46 6.635 7.96 6.905 7.5C7.175 7.04 7.54 6.675 8 6.405C8.46 6.135 8.96 6 9.5 6Z" fill="#9CA3AF"/>
</svg>