<svg width="26" height="24" viewBox="0 0 26 24" fill="none" xmlns="http://www.w3.org/2000/svg">
<path d="M13 6.5C14.4533 6.5 15.8 6.86667 17.04 7.6C18.24 8.30667 19.1933 9.26 19.9 10.46C20.6333 11.7 21 13.0467 21 14.5C21 15.9533 20.6333 17.3 19.9 18.54C19.1933 19.74 18.24 20.6933 17.04 21.4C15.8 22.1333 14.4533 22.5 13 22.5C11.5467 22.5 10.2 22.1333 8.96 21.4C7.76 20.6933 6.80667 19.74 6.1 18.54C5.36667 17.3 5 15.9533 5 14.5C5 13.0467 5.36667 11.7 6.1 10.46C6.80667 9.26 7.76 8.30667 8.96 7.6C10.2 6.86667 11.5467 6.5 13 6.5ZM13 8.5C11.92 8.5 10.9133 8.77333 9.98 9.32C9.07333 9.85333 8.35333 10.5733 7.82 11.48C7.27333 12.4133 7 13.4233 7 14.51C7 15.5967 7.27333 16.6 7.82 17.52C8.35333 18.4267 9.07333 19.1467 9.98 19.68C10.9133 20.2267 11.92 20.5 13 20.5C14.08 20.5 15.0867 20.2267 16.02 19.68C16.9267 19.1467 17.6467 18.4267 18.18 17.52C18.7267 16.6 19 15.5967 19 14.51C19 13.4233 18.7267 12.4133 18.18 11.48C17.6467 10.5733 16.9267 9.85333 16.02 9.32C15.0867 8.77333 14.08 8.5 13 8.5ZM13 10L14.32 12.68L17.28 13.1L15.14 15.2L15.64 18.14L13 16.76L10.36 18.14L10.86 15.2L8.72 13.1L11.68 12.68L13 10ZM19 1.5V4.5L17.64 5.64C16.4933 5.04 15.28 4.67333 14 4.54V1.5H19ZM12 1.5V4.54C10.72 4.67333 9.50667 5.04 8.36 5.64L7 4.5V1.5H12Z" fill="#9CA3AF"/>
</svg>
