<svg width="26" height="24" viewBox="0 0 26 24" fill="none" xmlns="http://www.w3.org/2000/svg">
<path d="M2.5 22.5C2.5 21.0467 2.86667 19.7 3.6 18.46C4.30667 17.26 5.26 16.3067 6.46 15.6C7.7 14.8667 9.04667 14.5 10.5 14.5C11.9533 14.5 13.3 14.8667 14.54 15.6C15.74 16.3067 16.6933 17.26 17.4 18.46C18.1333 19.7 18.5 21.0467 18.5 22.5H16.5C16.5 21.42 16.2267 20.4133 15.68 19.48C15.1467 18.5733 14.4267 17.8533 13.52 17.32C12.5867 16.7733 11.58 16.5 10.5 16.5C9.42 16.5 8.41333 16.7733 7.48 17.32C6.57333 17.8533 5.85333 18.5733 5.32 19.48C4.77333 20.4133 4.5 21.42 4.5 22.5H2.5ZM10.5 13.5C9.40667 13.5 8.4 13.2267 7.48 12.68C6.57333 12.1467 5.85333 11.4267 5.32 10.52C4.77333 9.6 4.5 8.59333 4.5 7.5C4.5 6.40667 4.77333 5.4 5.32 4.48C5.85333 3.57333 6.57333 2.85333 7.48 2.32C8.4 1.77333 9.40667 1.5 10.5 1.5C11.5933 1.5 12.6 1.77333 13.52 2.32C14.4267 2.85333 15.1467 3.57333 15.68 4.48C16.2267 5.4 16.5 6.40667 16.5 7.5C16.5 8.59333 16.2267 9.6 15.68 10.52C15.1467 11.4267 14.4267 12.1467 13.52 12.68C12.6 13.2267 11.5933 13.5 10.5 13.5ZM10.5 11.5C11.22 11.5 11.8867 11.32 12.5 10.96C13.1133 10.6 13.6 10.1133 13.96 9.5C14.32 8.88667 14.5 8.22 14.5 7.5C14.5 6.78 14.32 6.11333 13.96 5.5C13.6 4.88667 13.1133 4.4 12.5 4.04C11.8867 3.68 11.22 3.5 10.5 3.5C9.78 3.5 9.11333 3.68 8.5 4.04C7.88667 4.4 7.4 4.88667 7.04 5.5C6.68 6.11333 6.5 6.78 6.5 7.5C6.5 8.22 6.68 8.88667 7.04 9.5C7.4 10.1133 7.88667 10.6 8.5 10.96C9.11333 11.32 9.78 11.5 10.5 11.5ZM18.78 15.2C19.7133 15.6133 20.5367 16.19 21.25 16.93C21.9633 17.67 22.5133 18.5067 22.9 19.44C23.3 20.4133 23.5 21.4333 23.5 22.5H21.5C21.5 21.3 21.1733 20.2 20.52 19.2C19.88 18.2267 19.0267 17.5 17.96 17.02L18.78 15.2ZM18.1 3.92C19.1133 4.33333 19.9333 5 20.56 5.92C21.1867 6.84 21.5 7.86667 21.5 9C21.5 9.94667 21.28 10.8233 20.84 11.63C20.4 12.4367 19.7967 13.0933 19.03 13.6C18.2633 14.1067 17.42 14.4 16.5 14.48V12.46C17.06 12.38 17.57 12.1767 18.03 11.85C18.49 11.5233 18.85 11.11 19.11 10.61C19.37 10.11 19.5 9.57333 19.5 9C19.5 8.32 19.32 7.7 18.96 7.14C18.6 6.58 18.1267 6.15333 17.54 5.86L18.1 3.92Z" fill="#9CA3AF"/>
</svg>
