<svg width="19" height="18" viewBox="0 0 19 18" fill="none" xmlns="http://www.w3.org/2000/svg">
<path d="M9.375 12H6.375V6H9.375C9.915 6 10.415 6.135 10.875 6.405C11.335 6.675 11.7 7.04 11.97 7.5C12.24 7.96 12.375 8.46 12.375 9C12.375 9.54 12.24 10.04 11.97 10.5C11.7 10.96 11.335 11.325 10.875 11.595C10.415 11.865 9.915 12 9.375 12ZM7.875 7.5V10.5H9.375C9.645 10.5 9.895 10.4325 10.125 10.2975C10.355 10.1625 10.5375 9.98 10.6725 9.75C10.8075 9.52 10.875 9.27 10.875 9C10.875 8.73 10.8075 8.48 10.6725 8.25C10.5375 8.02 10.355 7.8375 10.125 7.7025C9.895 7.5675 9.645 7.5 9.375 7.5H7.875ZM11.625 3H4.125V15H14.625V6H11.625V3ZM2.625 2.25C2.625 2.04 2.6975 1.8625 2.8425 1.7175C2.9875 1.5725 3.165 1.5 3.375 1.5H12.375L16.125 5.25V15.75C16.125 15.95 16.0525 16.125 15.9075 16.275C15.7625 16.425 15.585 16.5 15.375 16.5H3.375C3.165 16.5 2.9875 16.4275 2.8425 16.2825C2.6975 16.1375 2.625 15.96 2.625 15.75V2.25Z" fill="#6B7280"/>
</svg>
