<svg width="19" height="18" viewBox="0 0 19 18" fill="none" xmlns="http://www.w3.org/2000/svg">
<path d="M15.375 16.5H3.375C3.165 16.5 2.9875 16.4275 2.8425 16.2825C2.6975 16.1375 2.625 15.96 2.625 15.75V2.25C2.625 2.04 2.6975 1.8625 2.8425 1.7175C2.9875 1.5725 3.165 1.5 3.375 1.5H15.375C15.585 1.5 15.7625 1.5725 15.9075 1.7175C16.0525 1.8625 16.125 2.04 16.125 2.25V15.75C16.125 15.96 16.0525 16.1375 15.9075 16.2825C15.7625 16.4275 15.585 16.5 15.375 16.5ZM14.625 15V3H4.125V15H14.625ZM10.875 9V12.75H7.875V10.5H9.375V9H10.875ZM9.375 3H10.875V4.5H9.375V3ZM7.875 4.5H9.375V6H7.875V4.5ZM9.375 6H10.875V7.5H9.375V6ZM7.875 7.5H9.375V9H7.875V7.5Z" fill="#6B7280"/>
</svg>
